Coordinates
version=1
nRows=38
nColumns=38
inDegrees=no

Units are S.I. units (second, meters, Newtons, ...)
If the header above contains a line with 'inDegrees', this indicates whether rotational values are in degrees (yes) or radians (no).

endheader
time	pelvis_tilt	pelvis_list	pelvis_rotation	pelvis_tx	pelvis_ty	pelvis_tz	hip_flexion_r	hip_adduction_r	hip_rotation_r	knee_angle_r	ankle_angle_r	subtalar_angle_r	mtp_angle_r	hip_flexion_l	hip_adduction_l	hip_rotation_l	knee_angle_l	ankle_angle_l	subtalar_angle_l	mtp_angle_l	lumbar_extension	lumbar_bending	lumbar_rotation	arm_flex_r	arm_add_r	arm_rot_r	elbow_flex_r	pro_sup_r	wrist_flex_r	wrist_dev_r	arm_flex_l	arm_add_l	arm_rot_l	elbow_flex_l	pro_sup_l	wrist_flex_l	wrist_dev_l
1.85	1.09885	1.52715	0.443165	0.633068	1.82138	1.0473	0.240874	-0.0964193	0.00495345	1.049	-0.26257	0	0	0.0795285	-0.0341731	-0.37965	0.249236	-0.118149	0	0	-0.096905	0.00392978	-0.0155582	-0.0953415	-0.283451	0.363821	0.60413	1.5708	0	0	-0.133149	-0.302468	0.258474	0.747034	1.18549	0	0
1.86	1.07221	1.51906	0.473591	0.632202	1.83248	1.04904	0.260898	-0.0855843	0.0288084	1.03405	-0.22766	0	0	0.0668592	-0.0382012	-0.374903	0.234843	-0.123811	0	0	-0.0923452	0.0136831	-0.0225996	-0.104136	-0.281398	0.349381	0.603796	1.5708	0	0	-0.129842	-0.303237	0.244588	0.766352	1.19312	0	0
1.87	1.20128	1.5147	0.353305	0.630614	1.84422	1.05118	0.272623	-0.0827463	-0.0166788	1.01943	-0.193239	0	0	0.0432227	-0.0420946	-0.37028	0.218839	-0.130216	0	0	-0.0957878	0.020968	-0.0388358	-0.107975	-0.276417	0.337729	0.597438	1.5708	0	0	-0.134364	-0.305348	0.221405	0.795356	1.20248	0	0
1.88	1.23145	1.50926	0.328881	0.629803	1.85553	1.05299	0.287369	-0.0763396	-0.0292564	0.998088	-0.168754	0	0	0.0248308	-0.0451636	-0.362168	0.202212	-0.135266	0	0	-0.0985316	0.0328717	-0.0421523	-0.12264	-0.277406	0.313778	0.607927	1.5708	0	0	-0.123976	-0.305532	0.216339	0.809913	1.21007	0	0
1.89	1.20732	1.50254	0.356481	0.629181	1.86655	1.05409	0.304001	-0.0677227	-0.0188418	0.971498	-0.129824	0	0	0.00994845	-0.048374	-0.355269	0.184706	-0.143695	0	0	-0.0963517	0.04134	-0.0484762	-0.130497	-0.276046	0.299727	0.609914	1.5708	0	0	-0.122607	-0.303464	0.193178	0.831902	1.22857	0	0
1.9	1.35667	1.4999	0.221252	0.627035	1.87844	1.05604	0.310331	-0.0744594	-0.128795	0.938478	-0.12323	0	0	-0.0188316	-0.0518379	-0.354161	0.167755	-0.149962	0	0	-0.107489	0.0513639	-0.0628677	-0.142335	-0.271049	0.264072	0.615881	1.5708	0	0	-0.117011	-0.307154	0.189507	0.854687	1.23039	0	0
1.91	1.38078	1.49519	0.206848	0.625824	1.88956	1.05694	0.32145	-0.0733986	-0.160928	0.904803	-0.112106	0	0	-0.0382041	-0.0549656	-0.347557	0.150651	-0.155356	0	0	-0.109743	0.059503	-0.0729791	-0.151684	-0.266911	0.239284	0.619258	1.5708	0	0	-0.111763	-0.312462	0.186333	0.877768	1.23369	0	0
1.92	1.42873	1.49081	0.169912	0.624469	1.9008	1.05761	0.328703	-0.075151	-0.197961	0.869135	-0.101432	0	0	-0.0603513	-0.0584766	-0.341462	0.132737	-0.161802	0	0	-0.11231	0.064238	-0.0887459	-0.154725	-0.258869	0.21845	0.613148	1.5708	0	0	-0.113253	-0.320014	0.176602	0.907792	1.23964	0	0
1.93	1.4349	1.48779	0.174631	0.62333	1.91185	1.0581	0.336696	-0.0758957	-0.228053	0.826002	-0.0952733	0	0	-0.0777083	-0.0615032	-0.342256	0.118516	-0.167538	0	0	-0.116288	0.0735048	-0.0952512	-0.167029	-0.256859	0.191038	0.622332	1.5708	0	0	-0.101467	-0.32417	0.179233	0.924677	1.24809	0	0
1.94	1.40849	1.48473	0.207818	0.622487	1.92281	1.05798	0.346367	-0.073366	-0.251083	0.776201	-0.0913384	0	0	-0.0931034	-0.0631953	-0.341263	0.102879	-0.172413	0	0	-0.115562	0.0787621	-0.101677	-0.174471	-0.251689	0.166721	0.623413	1.5708	0	0	-0.0951885	-0.330571	0.17868	0.946071	1.25798	0	0
1.95	1.39034	1.48208	0.232283	0.621823	1.93375	1.05759	0.353395	-0.0685191	-0.269236	0.720372	-0.0908694	0	0	-0.109939	-0.0640862	-0.333881	0.0851951	-0.177467	0	0	-0.115652	0.0832275	-0.107488	-0.180635	-0.245652	0.142468	0.623039	1.5708	0	0	-0.0892587	-0.336774	0.176365	0.967842	1.27096	0	0
1.96	1.37885	1.47969	0.249855	0.621295	1.94474	1.05687	0.358105	-0.0618857	-0.283172	0.659973	-0.0941331	0	0	-0.126922	-0.0653678	-0.326747	0.0689022	-0.181277	0	0	-0.116615	0.0873675	-0.112934	-0.18593	-0.240885	0.123187	0.622934	1.5708	0	0	-0.0837979	-0.342792	0.173132	0.990046	1.2836	0	0
1.97	1.37371	1.47781	0.260731	0.620901	1.95577	1.05586	0.360081	-0.0540751	-0.293961	0.593999	-0.105259	0	0	-0.144229	-0.0666923	-0.320239	0.0534987	-0.184676	0	0	-0.118899	0.0909147	-0.118822	-0.188472	-0.240678	0.120721	0.622104	1.5708	0	0	-0.0805837	-0.345721	0.161409	1.01288	1.30455	0	0
1.98	1.33786	1.47633	0.301196	0.620702	1.9669	1.0543	0.363904	-0.04624	-0.300554	0.525484	-0.110457	0	0	-0.157208	-0.0675941	-0.317266	0.0422837	-0.183704	0	0	-0.117498	0.0927444	-0.122785	-0.19227	-0.234345	0.100271	0.619002	1.5708	0	0	-0.075852	-0.352568	0.159991	1.03416	1.31377	0	0
1.99	1.30343	1.47546	0.339608	0.620599	1.97805	1.05244	0.365708	-0.0379851	-0.303503	0.453013	-0.121065	0	0	-0.170064	-0.0679388	-0.314278	0.0321031	-0.181811	0	0	-0.116682	0.0937866	-0.126167	-0.194407	-0.230948	0.0900926	0.615212	1.5708	0	0	-0.0716827	-0.358286	0.155754	1.05522	1.32515	0	0
2	1.2625	1.47523	0.383897	0.620573	1.98923	1.05023	0.366156	-0.0297745	-0.301218	0.377047	-0.137129	0	0	-0.182204	-0.0672756	-0.310914	0.0228118	-0.178656	0	0	-0.115475	0.0936044	-0.128973	-0.195437	-0.228674	0.0849157	0.610366	1.5708	0	0	-0.0677508	-0.363694	0.150846	1.07558	1.33634	0	0
2.01	1.21173	1.47562	0.437222	0.62074	2.00052	1.04768	0.365338	-0.0217378	-0.292324	0.298282	-0.156081	0	0	-0.193364	-0.0656721	-0.308392	0.0148774	-0.174003	0	0	-0.113556	0.0919571	-0.130882	-0.195777	-0.226902	0.0833761	0.604369	1.5708	0	0	-0.0643399	-0.368459	0.145271	1.09514	1.34574	0	0
2.02	1.15211	1.47666	0.498722	0.621017	2.01192	1.04485	0.362346	-0.0142523	-0.275874	0.216321	-0.186637	0	0	-0.203657	-0.0630005	-0.307296	0.00885997	-0.165671	0	0	-0.111132	0.0885624	-0.133017	-0.194043	-0.225994	0.0881889	0.595695	1.5708	0	0	-0.0629464	-0.371658	0.136481	1.11462	1.35406	0	0
2.03	1.07618	1.4783	0.5765	0.621348	2.02344	1.0417	0.358755	-0.00905719	-0.254707	0.135964	-0.203387	0	0	-0.212533	-0.0589077	-0.306047	0.00485581	-0.158071	0	0	-0.107524	0.0832071	-0.13529	-0.191744	-0.225092	0.0953835	0.585669	1.5708	0	0	-0.0613615	-0.37774	0.132512	1.13314	1.35741	0	0
2.04	0.986424	1.47965	0.667975	0.621775	2.03509	1.03826	0.355308	-0.00637798	-0.228287	0.0587404	-0.218602	0	0	-0.219382	-0.0544203	-0.306493	0.00427573	-0.148281	0	0	-0.102808	0.0767949	-0.13704	-0.189252	-0.224772	0.10609	0.574695	1.5708	0	0	-0.0598345	-0.38336	0.128256	1.14986	1.36144	0	0
2.05	0.903216	1.48131	0.753792	0.622123	2.04692	1.0348	0.353882	-0.00651531	-0.213188	0	-0.223696	0	0	-0.226013	-0.0502822	-0.307542	0.00722814	-0.140927	0	0	-0.0991746	0.0705112	-0.139546	-0.187467	-0.226068	0.120454	0.564304	1.5708	0	0	-0.0579449	-0.389036	0.125488	1.16438	1.36439	0	0
2.06	0.818557	1.48235	0.842255	0.622371	2.05897	1.03138	0.363376	-0.00905649	-0.230637	0	-0.198115	0	0	-0.226298	-0.0492185	-0.323677	0.02732	-0.101056	0	0	-0.0951554	0.063541	-0.142461	-0.181581	-0.221781	0.124007	0.546814	1.5708	0	0	-0.0566109	-0.394201	0.122887	1.17803	1.3678	0	0
2.07	0.759148	1.48381	0.904977	0.622585	2.07105	1.0282	0.369456	-0.00990389	-0.243733	0	-0.189233	0	0	-0.23052	-0.0484325	-0.331948	0.0421082	-0.0894001	0	0	-0.0941818	0.0590241	-0.143991	-0.17856	-0.220368	0.128241	0.5352	1.5708	0	0	-0.0532222	-0.398358	0.122578	1.18807	1.3695	0	0
2.08	0.71812	1.48477	0.949488	0.622954	2.08325	1.0252	0.373672	-0.00884852	-0.253324	0	-0.180727	0	0	-0.234055	-0.050156	-0.340636	0.060478	-0.0792664	0	0	-0.0943147	0.0564566	-0.144683	-0.175665	-0.219088	0.13126	0.524102	1.5708	0	0	-0.0491855	-0.401734	0.123379	1.19559	1.37105	0	0
2.09	0.688303	1.48585	0.982692	0.62335	2.09558	1.02244	0.376349	-0.00710602	-0.258569	0	-0.174148	0	0	-0.237529	-0.0528499	-0.348034	0.0804111	-0.0715017	0	0	-0.0953616	0.0549277	-0.144512	-0.173036	-0.21842	0.134239	0.513937	1.5708	0	0	-0.0446521	-0.404086	0.125025	1.20062	1.37279	0	0
2.1	0.670925	1.48684	1.00338	0.623697	2.10806	1.01993	0.378252	-0.0046161	-0.259474	0	-0.170357	0	0	-0.241475	-0.056407	-0.353407	0.0998813	-0.0658017	0	0	-0.0968751	0.0548067	-0.143661	-0.17088	-0.218669	0.138428	0.504628	1.5708	0	0	-0.040027	-0.404945	0.126822	1.20321	1.37464	0	0
2.11	0.670641	1.48822	1.00705	0.624008	2.12075	1.01778	0.379332	-0.00132297	-0.257417	0	-0.170207	0	0	-0.248208	-0.0601367	-0.352375	0.114483	-0.0703808	0	0	-0.0993162	0.0563484	-0.142081	-0.169797	-0.218319	0.137745	0.496364	1.5708	0	0	-0.0348386	-0.404814	0.130209	1.20276	1.37503	0	0
2.12	0.691778	1.48982	0.988458	0.624355	2.13378	1.01597	0.37923	0.00362221	-0.253066	0	-0.169528	0	0	-0.253536	-0.0671261	-0.361765	0.137784	-0.0657305	0	0	-0.102679	0.0594591	-0.139468	-0.167534	-0.219873	0.144065	0.486708	1.5708	0	0	-0.0307401	-0.403661	0.133581	1.20069	1.3775	0	0
2.13	0.741065	1.49179	0.940056	0.624767	2.14724	1.01447	0.376434	0.0109836	-0.244671	0	-0.179011	0	0	-0.257602	-0.0783833	-0.386717	0.17229	-0.0526536	0	0	-0.107178	0.0644976	-0.13633	-0.164543	-0.226247	0.166994	0.475378	1.5708	0	0	-0.0291455	-0.400985	0.134634	1.19751	1.38361	0	0
2.14	0.768391	1.49316	0.915391	0.625167	2.16113	1.01314	0.373971	0.0167476	-0.23633	0	-0.183772	0	0	-0.264258	-0.0849428	-0.387924	0.191896	-0.0537677	0	0	-0.108899	0.0681169	-0.132823	-0.165319	-0.226974	0.166271	0.471096	1.5708	0	0	-0.028187	-0.397456	0.137366	1.19224	1.38479	0	0
2.15	0.812344	1.49492	0.873971	0.62549	2.17541	1.01202	0.368058	0.0234729	-0.226914	0	-0.194759	0	0	-0.27022	-0.0935721	-0.394968	0.217469	-0.0564484	0	0	-0.110698	0.0729492	-0.130165	-0.167735	-0.229306	0.166715	0.467264	1.5708	0	0	-0.0291113	-0.393828	0.140531	1.18538	1.38667	0	0
2.16	0.881703	1.49557	0.806854	0.625785	2.19002	1.01114	0.359619	0.0325919	-0.218674	0	-0.263159	0	0	-0.273265	-0.107436	-0.414345	0.254129	-0.0749145	0	0	-0.112193	0.0804886	-0.126143	-0.17212	-0.234912	0.174146	0.46709	1.5708	0	0	-0.0296384	-0.390008	0.146966	1.17557	1.39	0	0
2.17	0.909195	1.49539	0.782491	0.625993	2.20472	1.01038	0.357654	0.0375043	-0.216958	0.0136687	-0.285797	0	0	-0.274208	-0.11653	-0.413662	0.283767	-0.0856691	0	0	-0.110143	0.0860073	-0.123654	-0.175627	-0.238364	0.176688	0.464347	1.5708	0	0	-0.0318553	-0.3856	0.152594	1.16398	1.39117	0	0
2.18	0.936083	1.494	0.758033	0.626353	2.21943	1.00994	0.358865	0.0417804	-0.218859	0.0376406	-0.303366	0	0	-0.272177	-0.126748	-0.410854	0.31716	-0.10135	0	0	-0.107279	0.0924978	-0.119682	-0.179101	-0.241778	0.178759	0.461703	1.5708	0	0	-0.033545	-0.380721	0.159992	1.14972	1.39175	0	0
2.19	0.968282	1.49053	0.727711	0.626945	2.23418	1.00986	0.361985	0.0473822	-0.226007	0.0674754	-0.305187	0	0	-0.26634	-0.139509	-0.405866	0.355997	-0.122835	0	0	-0.103331	0.10078	-0.114672	-0.182189	-0.245472	0.182358	0.459166	1.5708	0	0	-0.0353121	-0.375214	0.168202	1.13289	1.39245	0	0
2.2	1.00502	1.48616	0.692184	0.627589	2.24882	1.01026	0.363608	0.0540415	-0.230291	0.0976373	-0.296904	0	0	-0.257896	-0.152565	-0.394557	0.398513	-0.140358	0	0	-0.0997949	0.11021	-0.109798	-0.183789	-0.250135	0.189375	0.456068	1.5708	0	0	-0.0378823	-0.368578	0.175129	1.11412	1.39394	0	0
2.21	1.02274	1.47968	0.675202	0.628302	2.26334	1.01095	0.368506	0.061044	-0.23247	0.133685	-0.260547	0	0	-0.243414	-0.165979	-0.377923	0.445773	-0.177422	0	0	-0.0938218	0.120557	-0.103053	-0.186278	-0.252149	0.182882	0.455214	1.5708	0	0	-0.0392581	-0.360975	0.18446	1.09198	1.39443	0	0
2.22	1.03045	1.47203	0.667878	0.629066	2.27751	1.01185	0.373789	0.0688702	-0.227922	0.167941	-0.235961	0	0	-0.223768	-0.178982	-0.352806	0.496795	-0.207976	0	0	-0.0870204	0.131252	-0.0976905	-0.186624	-0.256794	0.187271	0.454491	1.5708	0	0	-0.0418594	-0.353198	0.192293	1.06918	1.39423	0	0
